<?xml version="1.0" encoding="UTF-8"?>
<svg width="32px" height="28px" viewBox="0 0 32 28" version="1.1" xmlns="http://www.w3.org/2000/svg" xmlns:xlink="http://www.w3.org/1999/xlink">
    <title>教育</title>
    <defs>
        <linearGradient x1="50%" y1="0%" x2="50%" y2="100%" id="linearGradient-1">
            <stop stop-color="#4A7A85" offset="0%"></stop>
            <stop stop-color="#1E4733" offset="100%"></stop>
        </linearGradient>
        <path d="M19.999776,14 L20,18.2834264 C20,18.7031319 19.7379184,19.0781774 19.3437964,19.2224706 L15.0313891,20.8012993 C14.3654115,21.0451224 13.6345885,21.0451224 12.9686109,20.8012993 L8.65620362,19.2224706 C8.26208157,19.0781774 8,18.7031319 8,18.2834264 L7.99977603,14 L12.8038993,15.7477824 C13.5765503,16.0287464 14.4234497,16.0287464 15.1961007,15.7477824 L19.999776,14 Z M14.516095,6.08996039 L14.6834861,6.14264114 L22.949022,9.14829057 C23.7275724,9.43139979 24.1292068,10.2920449 23.8460976,11.0705953 C23.7113145,11.4412487 23.4368151,11.741956 23.0846172,11.9106991 L22.949022,11.9676708 L22.4991843,12.130228 L22.5,18 C22.5,18.2761424 22.2761424,18.5 22,18.5 C21.7545401,18.5 21.5503916,18.3231248 21.5080557,18.0898756 L21.5,18 L21.4991843,12.494228 L14.6834861,14.9733203 C14.2971606,15.1138023 13.8783515,15.1313625 13.483905,15.026001 L13.3165139,14.9733203 L5.05097796,11.9676708 C4.27242759,11.6845616 3.87079319,10.8239165 4.15390242,10.0453661 C4.28868548,9.67471269 4.56318429,9.37400542 4.91538278,9.20526229 L5.05097796,9.14829057 L13.3165139,6.14264114 C13.7028394,6.00215913 14.1216485,5.98459888 14.516095,6.08996039 Z" id="path-2"></path>
        <filter x="-45.3%" y="-60.2%" width="190.6%" height="220.3%" filterUnits="objectBoundingBox" id="filter-3">
            <feOffset dx="0" dy="0" in="SourceAlpha" result="shadowOffsetOuter1"></feOffset>
            <feGaussianBlur stdDeviation="3" in="shadowOffsetOuter1" result="shadowBlurOuter1"></feGaussianBlur>
            <feColorMatrix values="0 0 0 0 0.366612281   0 0 0 0 1   0 0 0 0 0.529280359  0 0 0 0.3 0" type="matrix" in="shadowBlurOuter1"></feColorMatrix>
        </filter>
    </defs>
    <g id="页面-1" stroke="none" stroke-width="1" fill="none" fill-rule="evenodd">
        <g id="2.2主页_添加_类别" transform="translate(-298.000000, -396.000000)">
            <g id="搜索" transform="translate(0.000000, 92.000000)">
                <g id="切换" transform="translate(24.000000, 68.000000)">
                    <g id="教育" transform="translate(258.000000, 228.000000)">
                        <g transform="translate(18.000000, 8.000000)">
                            <rect id="矩形" fill="#D8D8D8" opacity="0" x="0" y="0" width="28" height="28"></rect>
                            <g id="形状">
                                <use fill="black" fill-opacity="1" filter="url(#filter-3)" xlink:href="#path-2"></use>
                                <use fill="url(#linearGradient-1)" fill-rule="evenodd" xlink:href="#path-2"></use>
                            </g>
                        </g>
                    </g>
                </g>
            </g>
        </g>
    </g>
</svg>