<?xml version="1.0" encoding="UTF-8"?>
<svg width="30px" height="30px" viewBox="0 0 30 30" version="1.1" xmlns="http://www.w3.org/2000/svg" xmlns:xlink="http://www.w3.org/1999/xlink">
    <title>金融</title>
    <defs>
        <linearGradient x1="50%" y1="0%" x2="50%" y2="100%" id="linearGradient-1">
            <stop stop-color="#FF891C" offset="0%"></stop>
            <stop stop-color="#F35F2D" offset="100%"></stop>
        </linearGradient>
        <linearGradient x1="50%" y1="0%" x2="50%" y2="100%" id="linearGradient-2">
            <stop stop-color="#FFC573" offset="0%"></stop>
            <stop stop-color="#FF6941" offset="100%"></stop>
        </linearGradient>
        <circle id="path-3" cx="14" cy="14" r="9"></circle>
        <filter x="-50.0%" y="-50.0%" width="200.0%" height="200.0%" filterUnits="objectBoundingBox" id="filter-4">
            <feOffset dx="0" dy="0" in="SourceAlpha" result="shadowOffsetOuter1"></feOffset>
            <feGaussianBlur stdDeviation="3" in="shadowOffsetOuter1" result="shadowBlurOuter1"></feGaussianBlur>
            <feComposite in="shadowBlurOuter1" in2="SourceAlpha" operator="out" result="shadowBlurOuter1"></feComposite>
            <feColorMatrix values="0 0 0 0 1   0 0 0 0 0.339692466   0 0 0 0 0.0662948981  0 0 0 0.3 0" type="matrix" in="shadowBlurOuter1"></feColorMatrix>
        </filter>
    </defs>
    <g id="页面-1" stroke="none" stroke-width="1" fill="none" fill-rule="evenodd">
        <g id="2.2主页_添加_类别" transform="translate(-140.000000, -475.000000)">
            <g id="搜索" transform="translate(0.000000, 92.000000)">
                <g id="切换" transform="translate(24.000000, 68.000000)">
                    <g id="图片" transform="translate(99.000000, 308.000000)">
                        <g id="金融" transform="translate(18.000000, 8.000000)">
                            <rect id="矩形" fill="#D8D8D8" opacity="0" x="0" y="0" width="28" height="28"></rect>
                            <g id="椭圆形">
                                <use fill="black" fill-opacity="1" filter="url(#filter-4)" xlink:href="#path-3"></use>
                                <circle stroke="url(#linearGradient-2)" stroke-width="2" stroke-linejoin="square" fill="url(#linearGradient-1)" fill-rule="evenodd" cx="14" cy="14" r="8"></circle>
                            </g>
                            <path d="M13.9838867,18 C14.2202148,18 14.3383789,17.8818359 14.3383789,17.6455078 L14.3383789,17.6455078 L14.3383789,16.2275391 L16.1269531,16.2275391 C16.3632812,16.2275391 16.4814453,16.109375 16.4814453,15.8730469 C16.4814453,15.6367188 16.3632812,15.5185547 16.1269531,15.5185547 L16.1269531,15.5185547 L14.3383789,15.5185547 L14.3383789,14.4550781 L16.1269531,14.4550781 C16.3632812,14.4550781 16.4814453,14.3369141 16.4814453,14.1005859 C16.4814453,13.8642578 16.3632812,13.7460938 16.1269531,13.7460938 L16.1269531,13.7460938 L14.8432617,13.7460938 L16.4169922,11.46875 C16.4599609,11.4078776 16.4814453,11.3398438 16.4814453,11.2646484 C16.4814453,11.1679688 16.4465332,11.0847168 16.376709,11.0148926 C16.3068848,10.9450684 16.2236328,10.9101562 16.1269531,10.9101562 C15.9980469,10.9101562 15.8995768,10.9602865 15.831543,11.0605469 L15.831543,11.0605469 L13.9838867,13.7246094 L12.168457,11.0605469 C12.1004232,10.9602865 12.0019531,10.9101562 11.8730469,10.9101562 C11.6367188,10.9101562 11.5185547,11.0283203 11.5185547,11.2646484 C11.5185547,11.3398438 11.5400391,11.4078776 11.5830078,11.46875 L11.5830078,11.46875 L13.1567383,13.7460938 L11.8730469,13.7460938 C11.6367188,13.7460938 11.5185547,13.8642578 11.5185547,14.1005859 C11.5185547,14.3369141 11.6367188,14.4550781 11.8730469,14.4550781 L11.8730469,14.4550781 L13.6293945,14.4550781 L13.6293945,15.5185547 L11.8730469,15.5185547 C11.6367188,15.5185547 11.5185547,15.6367188 11.5185547,15.8730469 C11.5185547,16.109375 11.6367188,16.2275391 11.8730469,16.2275391 L11.8730469,16.2275391 L13.6293945,16.2275391 L13.6293945,17.6455078 C13.6293945,17.8818359 13.7475586,18 13.9838867,18 Z" id="¥" stroke="#FFFFFF" stroke-width="0.7" fill="#FFFFFF" fill-rule="nonzero"></path>
                        </g>
                    </g>
                </g>
            </g>
        </g>
    </g>
</svg>