<?xml version="1.0" encoding="UTF-8"?>
<svg width="30px" height="30px" viewBox="0 0 30 30" version="1.1" xmlns="http://www.w3.org/2000/svg" xmlns:xlink="http://www.w3.org/1999/xlink">
    <title>游戏</title>
    <defs>
        <linearGradient x1="50%" y1="0%" x2="50%" y2="100%" id="linearGradient-1">
            <stop stop-color="#7145B9" offset="0%"></stop>
            <stop stop-color="#471661" offset="100%"></stop>
        </linearGradient>
        <path d="M14,5 C16.0829025,5 18.0005425,5.70757284 19.5256661,6.89546465 L14.8677187,12.8843448 C14.5286519,13.3202945 14.6071909,13.9485695 15.0431406,14.2876363 C15.1326252,14.3572345 15.2332927,14.4111102 15.3408389,14.44696 L22.5404399,16.8469005 L22.5404399,16.8469005 C21.3491935,20.4222198 17.9756332,23 14,23 C9.02943725,23 5,18.9705627 5,14 C5,9.02943725 9.02943725,5 14,5 Z" id="path-2"></path>
        <filter x="-51.3%" y="-50.0%" width="202.6%" height="200.0%" filterUnits="objectBoundingBox" id="filter-3">
            <feOffset dx="0" dy="0" in="SourceAlpha" result="shadowOffsetOuter1"></feOffset>
            <feGaussianBlur stdDeviation="3" in="shadowOffsetOuter1" result="shadowBlurOuter1"></feGaussianBlur>
            <feColorMatrix values="0 0 0 0 0.477796986   0 0 0 0 0.193002692   0 0 0 0 1  0 0 0 0.3 0" type="matrix" in="shadowBlurOuter1"></feColorMatrix>
        </filter>
    </defs>
    <g id="页面-1" stroke="none" stroke-width="1" fill="none" fill-rule="evenodd">
        <g id="2.2主页_添加_类别" transform="translate(-220.000000, -395.000000)">
            <g id="搜索" transform="translate(0.000000, 92.000000)">
                <g id="切换" transform="translate(24.000000, 68.000000)">
                    <g id="游戏" transform="translate(179.000000, 228.000000)">
                        <g transform="translate(18.000000, 8.000000)">
                            <rect id="矩形" fill="#D8D8D8" opacity="0" x="0" y="0" width="28" height="28"></rect>
                            <g id="路径">
                                <use fill="black" fill-opacity="1" filter="url(#filter-3)" xlink:href="#path-2"></use>
                                <use fill="url(#linearGradient-1)" fill-rule="evenodd" xlink:href="#path-2"></use>
                            </g>
                            <path d="M19.5,11 C20.3284271,11 21,11.6715729 21,12.5 C21,13.3284271 20.3284271,14 19.5,14 C18.6715729,14 18,13.3284271 18,12.5 C18,11.6715729 18.6715729,11 19.5,11 Z M24.5,11 C25.3284271,11 26,11.6715729 26,12.5 C26,13.3284271 25.3284271,14 24.5,14 C23.6715729,14 23,13.3284271 23,12.5 C23,11.6715729 23.6715729,11 24.5,11 Z" id="形状结合" fill="#CAC2DA"></path>
                            <circle id="椭圆形备份-6" fill="#FFE6FC" cx="11.5" cy="10.5" r="1.5"></circle>
                        </g>
                    </g>
                </g>
            </g>
        </g>
    </g>
</svg>