<?xml version="1.0" encoding="UTF-8"?>
<svg width="28px" height="29px" viewBox="0 0 28 29" version="1.1" xmlns="http://www.w3.org/2000/svg" xmlns:xlink="http://www.w3.org/1999/xlink">
    <title>最受欢迎</title>
    <defs>
        <linearGradient x1="50%" y1="0%" x2="50%" y2="100%" id="linearGradient-1">
            <stop stop-color="#FF953A" offset="0%"></stop>
            <stop stop-color="#EE3410" offset="100%"></stop>
        </linearGradient>
        <path d="M14,22 C9.81244445,22 7,18.1747692 7,15.2000803 C7,13.0751304 7.7945,11.6176894 9.47061112,9.88730433 C10.9118333,8.40016056 12.4561111,6.49035488 12.4444445,5 C14.1193889,5.28819682 16.3333333,7.40832999 16.3333333,10.6194366 C16.9508889,10.4067008 17.6944445,9.81665998 17.7061111,8.8252308 C19.9387222,10.5532076 21,13.0747291 21,15.1996789 C21,18.3867022 18.1875555,21.9991972 14,21.9991972 L14,22 Z" id="path-2"></path>
        <filter x="-64.3%" y="-52.9%" width="228.6%" height="205.9%" filterUnits="objectBoundingBox" id="filter-3">
            <feOffset dx="0" dy="0" in="SourceAlpha" result="shadowOffsetOuter1"></feOffset>
            <feGaussianBlur stdDeviation="3" in="shadowOffsetOuter1" result="shadowBlurOuter1"></feGaussianBlur>
            <feColorMatrix values="0 0 0 0 0.968627451   0 0 0 0 0.403921569   0 0 0 0 0.149019608  0 0 0 0.3 0" type="matrix" in="shadowBlurOuter1"></feColorMatrix>
        </filter>
    </defs>
    <g id="页面-1" stroke="none" stroke-width="1" fill="none" fill-rule="evenodd">
        <g id="2.2主页_添加_类别" transform="translate(-62.000000, -235.000000)">
            <g id="搜索" transform="translate(0.000000, 92.000000)">
                <g id="切换" transform="translate(24.000000, 68.000000)">
                    <g id="最受欢迎" transform="translate(20.000000, 68.000000)">
                        <g transform="translate(18.000000, 8.000000)">
                            <rect id="矩形" fill="#D8D8D8" opacity="0" x="0" y="0" width="28" height="28"></rect>
                            <g fill-rule="nonzero">
                                <use fill="black" fill-opacity="1" filter="url(#filter-3)" xlink:href="#path-2"></use>
                                <use fill="url(#linearGradient-1)" xlink:href="#path-2"></use>
                            </g>
                            <path d="M14,16.7550587 C14.8591096,16.7550587 15.5555555,16.036228 15.5555555,15.1495054 C15.5555555,14.5582603 15.0371667,13.7173518 14,12.6263783 C12.9628333,13.7173518 12.4444445,14.5582603 12.4444445,15.1495054 C12.4444445,16.036228 13.1408904,16.7550587 14,16.7550587 L14,16.7550587 Z" id="路径" fill="#FFFFFF"></path>
                        </g>
                    </g>
                </g>
            </g>
        </g>
    </g>
</svg>