<?xml version="1.0" encoding="UTF-8"?>
<svg width="12px" height="16px" viewBox="0 0 12 16" version="1.1" xmlns="http://www.w3.org/2000/svg" xmlns:xlink="http://www.w3.org/1999/xlink">
    <title>icon_top</title>
    <defs>
        <linearGradient x1="50%" y1="0%" x2="50%" y2="100%" id="linearGradient-1">
            <stop stop-color="#D32424" offset="0%"></stop>
            <stop stop-color="#FF633C" offset="100%"></stop>
        </linearGradient>
    </defs>
    <g id="页面-1" stroke="none" stroke-width="1" fill="none" fill-rule="evenodd">
        <g id="10.1笔记_默认" transform="translate(-354.000000, -144.000000)">
            <g id="编组-3" transform="translate(0.000000, 105.000000)">
                <g id="侧边" transform="translate(0.000000, 38.000000)">
                    <g id="icon_top" transform="translate(354.000000, 1.000000)">
                        <g id="锦旗">
                            <path d="M0,0 L12,0 L12,14.4007985 C12,15.2838197 11.2836556,15.9996498 10.4,15.9996498 C10.1516078,15.9996498 9.90662694,15.9418591 9.68445825,15.8308545 L6.89442719,14.4368406 C6.33137221,14.1555153 5.66862779,14.1555153 5.10557281,14.4368406 L2.31554175,15.8308545 C1.52517616,16.2257536 0.564099292,15.9056247 0.168916494,15.1158265 C0.0578321468,14.8938174 0,14.6490124 0,14.4007985 L0,0 L0,0 Z" id="矩形" fill="url(#linearGradient-1)"></path>
                            <rect id="矩形" fill="#D8D8D8" style="mix-blend-mode: multiply;" x="0" y="0" width="12" height="2"></rect>
                        </g>
                        <g transform="translate(2.000000, 4.000000)" fill="#FFFFFF">
                            <polygon id="矩形" opacity="0" points="0 0 8 0 8 8 0 8"></polygon>
                            <path d="M3.7226499,1.08397485 C3.86260799,0.990669461 4.03787933,0.975118562 4.1896085,1.03732216 L4.2773501,1.08397485 L5.7773501,2.08397485 C6.00711444,2.23715108 6.06920138,2.54758575 5.91602515,2.7773501 C5.7798685,2.98158507 5.51945827,3.05333419 5.30189943,2.95917646 L5.2226499,2.91602515 L4,2.101 L2.7773501,2.91602515 C2.57311513,3.0521818 2.30514063,3.01825397 2.14053161,2.84766266 L2.08397485,2.7773501 C1.9478182,2.57311513 1.98174603,2.30514063 2.15233734,2.14053161 L2.2226499,2.08397485 L3.7226499,1.08397485 Z" id="路径-2" fill-rule="nonzero"></path>
                            <path d="M3.7226499,3.08397485 C3.86260799,2.99066946 4.03787933,2.97511856 4.1896085,3.03732216 L4.2773501,3.08397485 L5.7773501,4.08397485 C6.00711444,4.23715108 6.06920138,4.54758575 5.91602515,4.7773501 C5.7798685,4.98158507 5.51945827,5.05333419 5.30189943,4.95917646 L5.2226499,4.91602515 L4,4.101 L2.7773501,4.91602515 C2.57311513,5.0521818 2.30514063,5.01825397 2.14053161,4.84766266 L2.08397485,4.7773501 C1.9478182,4.57311513 1.98174603,4.30514063 2.15233734,4.14053161 L2.2226499,4.08397485 L3.7226499,3.08397485 Z" id="路径-2备份-2" fill-rule="nonzero" opacity="0.75"></path>
                            <path d="M3.7226499,5.08397485 C3.86260799,4.99066946 4.03787933,4.97511856 4.1896085,5.03732216 L4.2773501,5.08397485 L5.7773501,6.08397485 C6.00711444,6.23715108 6.06920138,6.54758575 5.91602515,6.7773501 C5.7798685,6.98158507 5.51945827,7.05333419 5.30189943,6.95917646 L5.2226499,6.91602515 L4,6.101 L2.7773501,6.91602515 C2.57311513,7.0521818 2.30514063,7.01825397 2.14053161,6.84766266 L2.08397485,6.7773501 C1.9478182,6.57311513 1.98174603,6.30514063 2.15233734,6.14053161 L2.2226499,6.08397485 L3.7226499,5.08397485 Z" id="路径-2备份" fill-rule="nonzero" opacity="0.5"></path>
                        </g>
                    </g>
                </g>
            </g>
        </g>
    </g>
</svg>