<?xml version="1.0" encoding="UTF-8"?>
<svg width="28px" height="28px" viewBox="0 0 28 28" version="1.1" xmlns="http://www.w3.org/2000/svg" xmlns:xlink="http://www.w3.org/1999/xlink">
    <title>生活</title>
    <defs>
        <linearGradient x1="50%" y1="0%" x2="50%" y2="100%" id="linearGradient-1">
            <stop stop-color="#7A808A" offset="0%"></stop>
            <stop stop-color="#393F4F" offset="100%"></stop>
        </linearGradient>
        <path d="M9,9 L19,9 C20.1045695,9 21,9.8954305 21,11 L21,15 C21,18.3137085 18.3137085,21 15,21 L13,21 C9.6862915,21 7,18.3137085 7,15 L7,11 C7,9.8954305 7.8954305,9 9,9 Z" id="path-2"></path>
        <filter x="-64.3%" y="-75.0%" width="228.6%" height="250.0%" filterUnits="objectBoundingBox" id="filter-3">
            <feOffset dx="0" dy="0" in="SourceAlpha" result="shadowOffsetOuter1"></feOffset>
            <feGaussianBlur stdDeviation="3" in="shadowOffsetOuter1" result="shadowBlurOuter1"></feGaussianBlur>
            <feColorMatrix values="0 0 0 0 0.116513067   0 0 0 0 0.123006959   0 0 0 0 0.17972819  0 0 0 0.3 0" type="matrix" in="shadowBlurOuter1"></feColorMatrix>
        </filter>
    </defs>
    <g id="页面-1" stroke="none" stroke-width="1" fill="none" fill-rule="evenodd">
        <g id="2.2主页_添加_类别" transform="translate(-141.000000, -396.000000)">
            <g id="搜索" transform="translate(0.000000, 92.000000)">
                <g id="切换" transform="translate(24.000000, 68.000000)">
                    <g id="生活" transform="translate(99.000000, 228.000000)">
                        <g transform="translate(18.000000, 8.000000)">
                            <rect id="矩形" fill="#D8D8D8" opacity="0" x="0" y="0" width="28" height="28"></rect>
                            <path d="M19,11 L19,18 L21.5,18 C23.4329966,18 25,16.4329966 25,14.5 C25,12.5670034 23.4329966,11 21.5,11 L19,11 Z M21,16 L21,13 L21.5,13 C22.3284271,13 23,13.6715729 23,14.5 C23,15.3284271 22.3284271,16 21.5,16 L21,16 Z" id="矩形" fill="#303145" fill-rule="nonzero"></path>
                            <g id="矩形">
                                <use fill="black" fill-opacity="1" filter="url(#filter-3)" xlink:href="#path-2"></use>
                                <use fill="url(#linearGradient-1)" fill-rule="evenodd" xlink:href="#path-2"></use>
                            </g>
                            <path d="M14,4 C14.5128358,4 14.9355072,4.38604019 14.9932723,4.88337887 L15,5 L15,7 C15,7.55228475 14.5522847,8 14,8 C13.4871642,8 13.0644928,7.61395981 13.0067277,7.11662113 L13,7 L13,5 C13,4.44771525 13.4477153,4 14,4 Z M10,5 C10.5128358,5 10.9355072,5.38604019 10.9932723,5.88337887 L11,6 L11,7 C11,7.55228475 10.5522847,8 10,8 C9.48716416,8 9.06449284,7.61395981 9.00672773,7.11662113 L9,7 L9,6 C9,5.44771525 9.44771525,5 10,5 Z M18,5 C18.5128358,5 18.9355072,5.38604019 18.9932723,5.88337887 L19,6 L19,7 C19,7.55228475 18.5522847,8 18,8 C17.4871642,8 17.0644928,7.61395981 17.0067277,7.11662113 L17,7 L17,6 C17,5.44771525 17.4477153,5 18,5 Z" id="形状结合" fill="#CFCFCF" fill-rule="nonzero"></path>
                            <path d="M5.5,20 L22.5,20 C22.7761424,20 23,20.2238576 23,20.5 L23,20.5810491 C23,20.8234305 22.8261563,21.0309056 22.5875167,21.0733304 L20.1875,21.5 C18.3161322,21.8326876 16.4191113,22 14.5184013,22 L13.5329045,22 C11.6208882,22 9.7125388,21.8326953 7.82968986,21.5 L5.41299884,21.072976 C5.17412037,21.0307667 5,20.8231823 5,20.5806034 L5,20.5 C5,20.2238576 5.22385763,20 5.5,20 Z" id="矩形" fill="#303145"></path>
                        </g>
                    </g>
                </g>
            </g>
        </g>
    </g>
</svg>