<?xml version="1.0" encoding="UTF-8"?>
<svg width="28px" height="30px" viewBox="0 0 28 30" version="1.1" xmlns="http://www.w3.org/2000/svg" xmlns:xlink="http://www.w3.org/1999/xlink">
    <title>影音</title>
    <defs>
        <linearGradient x1="50%" y1="0%" x2="50%" y2="100%" id="linearGradient-1">
            <stop stop-color="#CD27F9" offset="0%"></stop>
            <stop stop-color="#7917FF" offset="100%"></stop>
        </linearGradient>
        <path d="M20,4.5 C19.5474138,6.31034483 17.0464848,7.71102111 15.8345992,7.9603875 L18.4320047,14.6375537 C18.4477071,14.6779313 18.4606086,14.7187077 18.4708035,14.7596685 C18.8095656,15.4336478 19,16.1945847 19,17 C19,19.7614237 16.7614237,22 14,22 C11.2385763,22 9,19.7614237 9,17 C9,14.2385763 11.2385763,12 14,12 C14.4603584,12 14.9061856,12.0622154 15.3295322,12.1786968 L13.0679953,6.36244626 C12.8678218,5.84771429 13.1228218,5.26816887 13.6375537,5.06799533 C13.7567967,5.02162308 13.8795179,4.99967838 14.0001952,4.99973144 L14,5 C14.1726963,5.0003267 14.3380562,5.04429073 14.4839802,5.12489257 C16.6109955,5.63933017 18.449703,5.43017821 20,4.5 Z" id="path-2"></path>
        <filter x="-81.8%" y="-51.4%" width="263.6%" height="202.9%" filterUnits="objectBoundingBox" id="filter-3">
            <feOffset dx="0" dy="0" in="SourceAlpha" result="shadowOffsetOuter1"></feOffset>
            <feGaussianBlur stdDeviation="3" in="shadowOffsetOuter1" result="shadowBlurOuter1"></feGaussianBlur>
            <feColorMatrix values="0 0 0 0 0.615686275   0 0 0 0 0.117647059   0 0 0 0 0.988235294  0 0 0 0.3 0" type="matrix" in="shadowBlurOuter1"></feColorMatrix>
        </filter>
    </defs>
    <g id="页面-1" stroke="none" stroke-width="1" fill="none" fill-rule="evenodd">
        <g id="2.2主页_添加_类别" transform="translate(-62.000000, -314.000000)">
            <g id="搜索" transform="translate(0.000000, 92.000000)">
                <g id="切换" transform="translate(24.000000, 68.000000)">
                    <g id="影音" transform="translate(20.000000, 148.000000)">
                        <g transform="translate(18.000000, 8.000000)">
                            <rect id="矩形" fill="#D8D8D8" opacity="0" x="0" y="0" width="28" height="28"></rect>
                            <g id="形状结合">
                                <use fill="black" fill-opacity="1" filter="url(#filter-3)" xlink:href="#path-2"></use>
                                <use fill="url(#linearGradient-1)" fill-rule="evenodd" xlink:href="#path-2"></use>
                            </g>
                            <circle id="椭圆形" fill="#FFFFFF" cx="14" cy="17" r="1"></circle>
                        </g>
                    </g>
                </g>
            </g>
        </g>
    </g>
</svg>