<?xml version="1.0" encoding="UTF-8"?>
<svg width="28px" height="28px" viewBox="0 0 28 28" version="1.1" xmlns="http://www.w3.org/2000/svg" xmlns:xlink="http://www.w3.org/1999/xlink">
    <title>新闻</title>
    <defs>
        <linearGradient x1="50%" y1="0%" x2="50%" y2="100%" id="linearGradient-1">
            <stop stop-color="#F8542B" offset="0%"></stop>
            <stop stop-color="#DF1919" offset="100%"></stop>
        </linearGradient>
        <path d="M8,6 L20,6 C21.1045695,6 22,6.8954305 22,8 L22,17.1715729 C22,17.7020059 21.7892863,18.2107137 21.4142136,18.5857864 L18.5857864,21.4142136 C18.2107137,21.7892863 17.7020059,22 17.1715729,22 L8,22 C6.8954305,22 6,21.1045695 6,20 L6,8 C6,6.8954305 6.8954305,6 8,6 Z" id="path-2"></path>
        <filter x="-56.2%" y="-56.2%" width="212.5%" height="212.5%" filterUnits="objectBoundingBox" id="filter-3">
            <feOffset dx="0" dy="0" in="SourceAlpha" result="shadowOffsetOuter1"></feOffset>
            <feGaussianBlur stdDeviation="3" in="shadowOffsetOuter1" result="shadowBlurOuter1"></feGaussianBlur>
            <feColorMatrix values="0 0 0 0 0.968627451   0 0 0 0 0.403921569   0 0 0 0 0.149019608  0 0 0 0.3 0" type="matrix" in="shadowBlurOuter1"></feColorMatrix>
        </filter>
    </defs>
    <g id="页面-1" stroke="none" stroke-width="1" fill="none" fill-rule="evenodd">
        <g id="2.2主页_添加_类别" transform="translate(-300.000000, -236.000000)">
            <g id="搜索" transform="translate(0.000000, 92.000000)">
                <g id="切换" transform="translate(24.000000, 68.000000)">
                    <g id="新闻" transform="translate(258.000000, 68.000000)">
                        <g transform="translate(18.000000, 8.000000)">
                            <rect id="矩形" fill="#D8D8D8" opacity="0" x="0" y="0" width="28" height="28"></rect>
                            <g id="矩形" fill-rule="nonzero">
                                <use fill="black" fill-opacity="1" filter="url(#filter-3)" xlink:href="#path-2"></use>
                                <use fill="url(#linearGradient-1)" xlink:href="#path-2"></use>
                            </g>
                            <path d="M19.7928932,16 C19.9255015,16 20.0526784,16.0526784 20.1464466,16.1464466 C20.3417088,16.3417088 20.3417088,16.6582912 20.1464466,16.8535534 L20.1464466,16.8535534 L16.8535534,20.1464466 C16.7597852,20.2402148 16.6326082,20.2928932 16.5,20.2928932 C16.2238576,20.2928932 16,20.0690356 16,19.7928932 L16,19.7928932 L16,18 C16,16.8954305 16.8954305,16 18,16 L18,16 Z M13,14 C13.5522847,14 14,14.4477153 14,15 C14,15.5522847 13.5522847,16 13,16 L10,16 C9.44771525,16 9,15.5522847 9,15 C9,14.4477153 9.44771525,14 10,14 L13,14 Z M17,9 C17.5522847,9 18,9.44771525 18,10 C18,10.5522847 17.5522847,11 17,11 L10,11 C9.44771525,11 9,10.5522847 9,10 C9,9.44771525 9.44771525,9 10,9 L17,9 Z" id="形状结合" fill="#FFFFFF"></path>
                        </g>
                    </g>
                </g>
            </g>
        </g>
    </g>
</svg>