<?xml version="1.0" encoding="UTF-8"?>
<svg width="86px" height="86px" viewBox="0 0 86 86" version="1.1" xmlns="http://www.w3.org/2000/svg" xmlns:xlink="http://www.w3.org/1999/xlink">
    <title>笔记@2x</title>
    <g id="页面-1" stroke="none" stroke-width="1" fill="none" fill-rule="evenodd">
        <g id="10.4空列表" transform="translate(-152.000000, -260.000000)" stroke-width="2">
            <g id="编组-4" transform="translate(125.000000, 260.000000)">
                <g id="笔记" transform="translate(27.000000, 0.000000)">
                    <path d="M14,25 L52.5,25 L52.5,25 L52.5,28.5 L52.5,32 L14,32 C12.0670034,32 10.5,30.4329966 10.5,28.5 C10.5,26.5670034 12.0670034,25 14,25 Z" id="矩形备份-2" stroke="#333333" fill="#FFFFFF"></path>
                    <rect id="矩形" stroke="#333333" fill="#FFFFFF" x="10.5" y="32" width="46" height="42"></rect>
                    <line x1="10.5" y1="30" x2="10.5" y2="39" id="直线-4" stroke="#333333" stroke-linecap="square"></line>
                    <line x1="18.5" y1="43" x2="38.5" y2="43" id="直线-4备份" stroke="#0079F2"></line>
                    <line x1="18.5" y1="53" x2="28.5" y2="53" id="直线-4备份-2" stroke="#333333"></line>
                    <path d="M61.5,14 L71.5,14 M66.5,9 L66.5,19" id="形状结合" stroke="#333333"></path>
                    <path d="M72.3181818,38 L78.6818182,38 M75.5,35 L75.5,41" id="形状结合备份" stroke="#0079F2"></path>
                    <circle id="椭圆形" stroke="#333333" stroke-linecap="round" cx="46.5" cy="58.5" r="3.5"></circle>
                </g>
            </g>
        </g>
    </g>
</svg>