<?xml version="1.0" encoding="UTF-8"?>
<svg width="128px" height="84px" viewBox="0 0 128 84" version="1.1" xmlns="http://www.w3.org/2000/svg" xmlns:xlink="http://www.w3.org/1999/xlink">
    <title>no pic</title>
    <g id="页面-1" stroke="none" stroke-width="1" fill="none" fill-rule="evenodd">
        <g id="3.3.5设置_添加引擎" transform="translate(-129.000000, -595.000000)">
            <g id="no-pic" transform="translate(129.000000, 595.000000)">
                <rect id="矩形" fill="#FFFFFF" opacity="0" x="0" y="0" width="128" height="84"></rect>
                <path d="M66.9714488,14.0448552 C71.2516556,14.0448552 75.1266556,15.7797518 77.9316039,18.5847001 C80.7365522,21.3896484 82.4714488,25.2646484 82.4714488,29.5448552 L82.4714488,29.5448552 L82.4714488,57.5448552 C82.4714488,61.825062 80.7365522,65.700062 77.9316039,68.5050103 C75.1266556,71.3099586 71.2516556,73.0448552 66.9714488,73.0448552 L66.9714488,73.0448552 L37.9714488,73.0448552 C33.691242,73.0448552 29.816242,71.3099586 27.0112937,68.5050103 C24.2063454,65.700062 22.4714488,61.825062 22.4714488,57.5448552 L22.4714488,57.5448552 L22.4714488,29.5448552 C22.4714488,25.2646484 24.2063454,21.3896484 27.0112937,18.5847001 C29.816242,15.7797518 33.691242,14.0448552 37.9714488,14.0448552 L37.9714488,14.0448552 Z" id="矩形" stroke="#EEF0F5" fill="#FBFBFD" transform="translate(52.471449, 43.544855) rotate(-386.000000) translate(-52.471449, -43.544855) "></path>
                <rect id="矩形" stroke="#EEF0F5" fill="#FFFFFF" x="34.5" y="6.5" width="63" height="63" rx="16"></rect>
                <path d="M41,29 L41,24 C41,19.8025078 43.3510556,16.1541341 46.808154,14.2998915 M55,13 L56.5,13" id="形状" stroke="#EEF0F5" fill="#FFFFFF" stroke-linecap="round"></path>
                <path d="M78.1594257,59.3860919 C75.4342933,56.1229177 71.0032047,54 66,54 C61.1619017,54 56.8587828,55.9851165 54.1158962,59.0667969" id="路径" stroke="#EEF0F5" stroke-linecap="round" stroke-linejoin="round"></path>
                <path d="M67.828,40.116 L67.828,39.504 C67.828,38.64 68.008,37.848 68.404,37.128 C68.728,36.48 69.232,35.832 69.916,35.256 C71.608,33.78 72.616,32.844 72.94,32.448 C73.84,31.296 74.308,29.82 74.308,28.056 C74.308,25.896 73.588,24.168 72.148,22.908 C70.708,21.612 68.836,21 66.532,21 C63.868,21 61.78,21.756 60.268,23.304 C58.756,24.816 58,26.868 58,29.496 L61.78,29.496 C61.78,27.912 62.104,26.688 62.752,25.824 C63.472,24.78 64.66,24.276 66.28,24.276 C67.576,24.276 68.62,24.636 69.34,25.356 C70.024,26.076 70.384,27.048 70.384,28.308 C70.384,29.244 70.024,30.108 69.376,30.936 L68.764,31.62 C66.532,33.6 65.164,35.076 64.696,36.084 C64.192,37.02 63.976,38.172 63.976,39.504 L63.976,40.116 L67.828,40.116 Z M65.884,47.208 C66.604,47.208 67.252,46.956 67.756,46.488 C68.26,45.984 68.548,45.372 68.548,44.616 C68.548,43.86 68.296,43.248 67.792,42.78 C67.288,42.276 66.64,42.06 65.884,42.06 C65.164,42.06 64.516,42.276 64.012,42.78 C63.508,43.248 63.256,43.86 63.256,44.616 C63.256,45.336 63.508,45.948 64.012,46.452 C64.516,46.956 65.164,47.208 65.884,47.208 Z" id="？" fill="#EEF0F5" fill-rule="nonzero"></path>
                <rect id="矩形" stroke="#EEF0F5" fill="#FFFFFF" transform="translate(110.885090, 63.866210) rotate(-38.000000) translate(-110.885090, -63.866210) " x="110.38509" y="58.8662102" width="1" height="10" rx="0.5"></rect>
                <circle id="椭圆形" stroke="#EEF0F5" fill="#FFFFFF" transform="translate(97.476019, 48.327651) rotate(-38.000000) translate(-97.476019, -48.327651) " cx="97.4760193" cy="48.3276512" r="17.5"></circle>
                <path d="M98.4430166,56.6329149 C100.111879,57.4122233 101.973635,57.8474929 103.937054,57.8474929 C104.918167,57.8474929 105.873894,57.7388078 106.792854,57.5328207 M111.504902,55.4188466 C112.063706,55.0180973 112.589424,54.5741394 113.077171,54.0918592" id="形状" stroke="#EEF0F5" fill="#FFFFFF" stroke-linecap="round" transform="translate(105.760094, 55.969676) rotate(-38.000000) translate(-105.760094, -55.969676) "></path>
                <rect id="矩形" stroke="#EEF0F5" fill="#FFFFFF" transform="translate(114.271228, 68.200269) rotate(-38.000000) translate(-114.271228, -68.200269) " x="111.771228" y="62.7002693" width="5" height="11" rx="2.5"></rect>
            </g>
        </g>
    </g>
</svg>