<?xml version="1.0" encoding="UTF-8"?>
<svg width="48px" height="48px" viewBox="0 0 48 48" version="1.1" xmlns="http://www.w3.org/2000/svg" xmlns:xlink="http://www.w3.org/1999/xlink">
    <title>无搜索结果</title>
    <g id="页面-1" stroke="none" stroke-width="1" fill="none" fill-rule="evenodd">
        <g id="11.6待办_空白" transform="translate(-171.000000, -282.000000)">
            <g id="编组" transform="translate(139.000000, 282.000000)">
                <g id="无搜索结果" transform="translate(32.000000, 0.000000)">
                    <rect id="矩形" fill="#FFFFFF" opacity="0" x="0" y="0" width="48" height="48"></rect>
                    <path d="M35.9004917,18.4296875 L12.1500688,18.4296875 C11.7873458,18.4296875 11.4530616,18.6261025 11.2765145,18.9429608 L6.75289142,27.0617473 C6.58704961,27.3593924 6.5,27.694472 6.5,28.0352008 L6.5,38.8554688 L6.5,38.8554688 L41.546875,38.8554688 L41.546875,28.0348505 C41.546875,27.6943441 41.4599389,27.3594757 41.2943029,27.0619704 L36.7742056,18.9432474 C36.5977055,18.6262286 36.2633322,18.4296875 35.9004917,18.4296875 Z M28.4765625,27.6171875 C28.4765625,30.0742188 26.484375,32.0664062 24.0234375,32.0664062 C21.5625,32.0664062 19.5703125,30.0742188 19.5703125,27.6171875 L10.2431699,27.6171875 C9.69088518,27.6171875 9.24316993,27.1694722 9.24316993,26.6171875 C9.24316993,26.4554502 9.28240012,26.2961262 9.35749604,26.1528797 L12.3636987,20.4185047 C12.5363576,20.0891553 12.8775096,19.8828125 13.2493726,19.8828125 L34.7935962,19.8828125 C35.1654592,19.8828125 35.5066111,20.0891553 35.6792701,20.4185047 L38.6854727,26.1528797 C38.9419028,26.6420239 38.7532508,27.2464313 38.2641067,27.5028614 C38.1208601,27.5779573 37.9615362,27.6171875 37.7997988,27.6171875 L28.4765625,27.6171875 L28.4765625,27.6171875 Z M24.3808594,9.1171875 C24.8026237,9.1171875 25.1445312,9.45909504 25.1445312,9.88085938 L25.1445312,13.8457031 C25.1445312,14.2674675 24.8026237,14.609375 24.3808594,14.609375 C23.959095,14.609375 23.6171875,14.2674675 23.6171875,13.8457031 L23.6171875,9.88085938 C23.6171875,9.45909504 23.959095,9.1171875 24.3808594,9.1171875 Z M13.7921289,11.3038477 C14.0903523,11.0056242 14.5738676,11.005623 14.8720926,11.3038449 L17.6756613,14.1073855 C17.9738951,14.4056163 17.9738975,14.8891463 17.6756668,15.1873801 C17.6756659,15.187381 17.675665,15.1873819 17.6756641,15.1873828 C17.3774318,15.4856151 16.8939018,15.4856151 16.5956695,15.1873828 C16.5956686,15.1873819 16.5956677,15.187381 16.5956668,15.1873801 L13.7921262,12.3838113 C13.4939043,12.0855864 13.4939055,11.6020711 13.7921289,11.3038477 Z M30.6160422,14.1098899 L33.419573,11.3063308 C33.7178038,11.0080971 34.2013338,11.0080946 34.4995676,11.3063254 C34.4995685,11.3063263 34.4995694,11.3063272 34.4995703,11.3063281 C34.7978041,11.6045619 34.7978041,12.0880944 34.4995703,12.3863281 L31.6960449,15.1898535 C31.397815,15.4880835 30.91429,15.4880878 30.6160547,15.1898633 C30.3178248,14.8916442 30.3178161,14.4081268 30.6160352,14.1098969 C30.6160375,14.1098946 30.6160399,14.1098922 30.6160422,14.1098899 Z" id="形状" fill="#EEF0F5" fill-rule="nonzero"></path>
                </g>
            </g>
        </g>
    </g>
</svg>