<?xml version="1.0" encoding="UTF-8"?>
<svg width="30px" height="28px" viewBox="0 0 30 28" version="1.1" xmlns="http://www.w3.org/2000/svg" xmlns:xlink="http://www.w3.org/1999/xlink">
    <title>图片</title>
    <defs>
        <linearGradient x1="50%" y1="0%" x2="50%" y2="100%" id="linearGradient-1">
            <stop stop-color="#31BADD" offset="0%"></stop>
            <stop stop-color="#1775FF" offset="100%"></stop>
        </linearGradient>
        <rect id="path-2" x="5" y="6" width="18" height="16" rx="4"></rect>
        <filter x="-50.0%" y="-56.2%" width="200.0%" height="212.5%" filterUnits="objectBoundingBox" id="filter-3">
            <feOffset dx="0" dy="0" in="SourceAlpha" result="shadowOffsetOuter1"></feOffset>
            <feGaussianBlur stdDeviation="3" in="shadowOffsetOuter1" result="shadowBlurOuter1"></feGaussianBlur>
            <feColorMatrix values="0 0 0 0 0.117647059   0 0 0 0 0.755305735   0 0 0 0 0.988235294  0 0 0 0.3 0" type="matrix" in="shadowBlurOuter1"></feColorMatrix>
        </filter>
    </defs>
    <g id="页面-1" stroke="none" stroke-width="1" fill="none" fill-rule="evenodd">
        <g id="2.2主页_添加_类别" transform="translate(-140.000000, -316.000000)">
            <g id="搜索" transform="translate(0.000000, 92.000000)">
                <g id="切换" transform="translate(24.000000, 68.000000)">
                    <g id="图片" transform="translate(99.000000, 148.000000)">
                        <g transform="translate(18.000000, 8.000000)">
                            <rect id="矩形" fill="#D8D8D8" opacity="0" x="0" y="0" width="28" height="28"></rect>
                            <g id="矩形">
                                <use fill="black" fill-opacity="1" filter="url(#filter-3)" xlink:href="#path-2"></use>
                                <use fill="url(#linearGradient-1)" fill-rule="evenodd" xlink:href="#path-2"></use>
                            </g>
                            <path d="M7.58578644,15.4142136 L9.29289322,13.7071068 C9.74564609,13.2543539 10.3597108,13 11,13 C11.6402892,13 12.2543539,13.2543539 12.7071068,13.7071068 L14.6464466,15.6464466 C14.872823,15.872823 15.1798554,16 15.5,16 C15.8201446,16 16.127177,15.872823 16.3535534,15.6464466 L17.6464466,14.3535534 C17.872823,14.127177 18.1798554,14 18.5,14 C18.8201446,14 19.127177,14.127177 19.3535534,14.3535534 L20.4142136,15.4142136 C20.7892863,15.7892863 21,16.2979941 21,16.8284271 L21,18 C21,19.1045695 20.1045695,20 19,20 L9,20 C7.8954305,20 7,19.1045695 7,18 L7,16.8284271 C7,16.2979941 7.21071368,15.7892863 7.58578644,15.4142136 Z" id="路径-15" fill="#FFFFFF"></path>
                            <circle id="椭圆形" fill="#FFFFFF" cx="15" cy="10" r="2"></circle>
                        </g>
                    </g>
                </g>
            </g>
        </g>
    </g>
</svg>