<?xml version="1.0" encoding="UTF-8"?>
<svg width="30px" height="30px" viewBox="0 0 30 30" version="1.1" xmlns="http://www.w3.org/2000/svg" xmlns:xlink="http://www.w3.org/1999/xlink">
    <title>用户分享</title>
    <defs>
        <linearGradient x1="50%" y1="0%" x2="50%" y2="98.490511%" id="linearGradient-1">
            <stop stop-color="#2ACC6A" offset="0%"></stop>
            <stop stop-color="#18B49E" offset="100%"></stop>
        </linearGradient>
        <path d="M17.5,5 C18.8807119,5 20,6.11928813 20,7.5 C20,8.88071187 18.8807119,10 17.5,10 C17.1371256,10 16.7923084,9.92268772 16.4811217,9.78363638 L12.5739962,13.2018095 C12.8465198,13.7424011 13,14.3532769 13,15 C13,15.2362303 12.979522,15.4676777 12.9402444,15.692664 L17.839304,17.9187954 C18.3850124,17.352376 19.1513553,17 20,17 C21.6568542,17 23,18.3431458 23,20 C23,21.6568542 21.6568542,23 20,23 C18.3431458,23 17,21.6568542 17,20 C17,19.9124371 17.0037514,19.8257504 17.0111023,19.7400918 L12.1119678,17.5133117 C11.378671,18.420141 10.2570522,19 9,19 C6.790861,19 5,17.209139 5,15 C5,12.790861 6.790861,11 9,11 C9.83679508,11 10.6135755,11.2569532 11.2557434,11.6962617 L15.132561,8.30537772 C15.0466176,8.05266775 15,7.78177793 15,7.5 C15,6.11928813 16.1192881,5 17.5,5 Z" id="path-2"></path>
        <filter x="-50.0%" y="-50.0%" width="200.0%" height="200.0%" filterUnits="objectBoundingBox" id="filter-3">
            <feOffset dx="0" dy="0" in="SourceAlpha" result="shadowOffsetOuter1"></feOffset>
            <feGaussianBlur stdDeviation="3" in="shadowOffsetOuter1" result="shadowBlurOuter1"></feGaussianBlur>
            <feColorMatrix values="0 0 0 0 0.121568627   0 0 0 0 0.788235294   0 0 0 0 0.521568627  0 0 0 0.3 0" type="matrix" in="shadowBlurOuter1"></feColorMatrix>
        </filter>
    </defs>
    <g id="页面-1" stroke="none" stroke-width="1" fill="none" fill-rule="evenodd">
        <g id="2.2主页_添加_类别" transform="translate(-140.000000, -235.000000)">
            <g id="搜索" transform="translate(0.000000, 92.000000)">
                <g id="切换" transform="translate(24.000000, 68.000000)">
                    <g id="用户分享" transform="translate(99.000000, 68.000000)">
                        <g transform="translate(18.000000, 8.000000)">
                            <rect id="矩形" fill="#D8D8D8" opacity="0" x="0" y="0" width="28" height="28"></rect>
                            <g id="形状结合" fill-rule="nonzero">
                                <use fill="black" fill-opacity="1" filter="url(#filter-3)" xlink:href="#path-2"></use>
                                <use fill="url(#linearGradient-1)" xlink:href="#path-2"></use>
                            </g>
                        </g>
                    </g>
                </g>
            </g>
        </g>
    </g>
</svg>