<?xml version="1.0" encoding="UTF-8"?>
<svg width="28px" height="28px" viewBox="0 0 28 28" version="1.1" xmlns="http://www.w3.org/2000/svg" xmlns:xlink="http://www.w3.org/1999/xlink">
    <title>社交</title>
    <defs>
        <linearGradient x1="50%" y1="0%" x2="50%" y2="98.490511%" id="linearGradient-1">
            <stop stop-color="#2ACC6A" offset="0%"></stop>
            <stop stop-color="#18B49E" offset="100%"></stop>
        </linearGradient>
        <path d="M10,10 L20,10 C21.1045695,10 22,10.8954305 22,12 L22,18 C22,19.1045695 21.1045695,20 20,20 L17.2324459,20 C16.8653438,20 16.5277543,20.2011422 16.3530084,20.5239855 L15.8153577,21.517296 C15.5735763,21.9639874 15.0154588,22.1300998 14.5687674,21.8883184 C14.409833,21.8022917 14.2797666,21.6713457 14.194813,21.5118351 L13.6718573,20.5299232 C13.4981546,20.2037755 13.1587518,20 12.7892318,20 L10,20 C8.8954305,20 8,19.1045695 8,18 L8,12 C8,10.8954305 8.8954305,10 10,10 Z" id="path-2"></path>
        <filter x="-64.3%" y="-69.1%" width="228.6%" height="230.3%" filterUnits="objectBoundingBox" id="filter-3">
            <feOffset dx="0" dy="0" in="SourceAlpha" result="shadowOffsetOuter1"></feOffset>
            <feGaussianBlur stdDeviation="3" in="shadowOffsetOuter1" result="shadowBlurOuter1"></feGaussianBlur>
            <feColorMatrix values="0 0 0 0 0.121568627   0 0 0 0 0.788235294   0 0 0 0 0.176470588  0 0 0 0.3 0" type="matrix" in="shadowBlurOuter1"></feColorMatrix>
        </filter>
        <linearGradient x1="50%" y1="0%" x2="50%" y2="98.490511%" id="linearGradient-4">
            <stop stop-color="#6DE83E" offset="0%"></stop>
            <stop stop-color="#27DC82" offset="100%"></stop>
        </linearGradient>
        <path d="M8,7 L18,7 C19.1045695,7 20,7.8954305 20,9 L20,15 C20,16.1045695 19.1045695,17 18,17 L15.2324459,17 C14.8653438,17 14.5277543,17.2011422 14.3530084,17.5239855 L13.8153577,18.517296 C13.5735763,18.9639874 13.0154588,19.1300998 12.5687674,18.8883184 C12.409833,18.8022917 12.2797666,18.6713457 12.194813,18.5118351 L11.6718573,17.5299232 C11.4981546,17.2037755 11.1587518,17 10.7892318,17 L8,17 C6.8954305,17 6,16.1045695 6,15 L6,9 C6,7.8954305 6.8954305,7 8,7 Z" id="path-5"></path>
        <filter x="-64.3%" y="-69.1%" width="228.6%" height="230.3%" filterUnits="objectBoundingBox" id="filter-6">
            <feOffset dx="0" dy="0" in="SourceAlpha" result="shadowOffsetOuter1"></feOffset>
            <feGaussianBlur stdDeviation="3" in="shadowOffsetOuter1" result="shadowBlurOuter1"></feGaussianBlur>
            <feColorMatrix values="0 0 0 0 0.121568627   0 0 0 0 0.788235294   0 0 0 0 0.177716418  0 0 0 0.3 0" type="matrix" in="shadowBlurOuter1"></feColorMatrix>
        </filter>
    </defs>
    <g id="页面-1" stroke="none" stroke-width="1" fill="none" fill-rule="evenodd">
        <g id="2.2主页_添加_类别" transform="translate(-300.000000, -316.000000)">
            <g id="搜索" transform="translate(0.000000, 92.000000)">
                <g id="切换" transform="translate(24.000000, 68.000000)">
                    <g id="社交" transform="translate(258.000000, 148.000000)">
                        <g transform="translate(18.000000, 8.000000)">
                            <rect id="矩形" fill="#D8D8D8" opacity="0" x="0" y="0" width="28" height="28"></rect>
                            <g id="矩形" fill-rule="nonzero">
                                <use fill="black" fill-opacity="1" filter="url(#filter-3)" xlink:href="#path-2"></use>
                                <use fill="url(#linearGradient-1)" xlink:href="#path-2"></use>
                            </g>
                            <g id="矩形" fill-rule="nonzero">
                                <use fill="black" fill-opacity="1" filter="url(#filter-6)" xlink:href="#path-5"></use>
                                <use fill="url(#linearGradient-4)" xlink:href="#path-5"></use>
                            </g>
                            <circle id="椭圆形" fill="#FFFFFF" cx="9" cy="12" r="1"></circle>
                            <circle id="椭圆形备份-3" fill="#FFFFFF" cx="13" cy="12" r="1"></circle>
                            <circle id="椭圆形备份-4" fill="#FFFFFF" cx="17" cy="12" r="1"></circle>
                        </g>
                    </g>
                </g>
            </g>
        </g>
    </g>
</svg>