<?xml version="1.0" encoding="UTF-8"?>
<svg width="30px" height="30px" viewBox="0 0 30 30" version="1.1" xmlns="http://www.w3.org/2000/svg" xmlns:xlink="http://www.w3.org/1999/xlink">
    <title>科技</title>
    <defs>
        <linearGradient x1="50%" y1="0%" x2="50%" y2="100%" id="linearGradient-1">
            <stop stop-color="#5847FF" offset="0%"></stop>
            <stop stop-color="#5636FF" offset="100%"></stop>
        </linearGradient>
        <path d="M14.1667308,6.47310486 C17.2072219,4.8306918 20.1421256,4.56979067 21.7861674,6.21383255 C23.4602515,7.88791656 23.159137,10.9004701 21.4354773,14.0000474 C23.159137,17.0995299 23.4602515,20.1120834 21.7861674,21.7861674 C20.1120834,23.4602515 17.0995299,23.159137 13.9999526,21.4354773 C10.9004701,23.159137 7.88791656,23.4602515 6.21383255,21.7861674 C4.53974854,20.1120834 4.84086296,17.0995299 6.56452267,13.9999526 C4.84086296,10.9004701 4.53974854,7.88791656 6.21383255,6.21383255 C7.88791656,4.53974854 10.9004701,4.84086296 14.0000474,6.56452267 L14.1667308,6.47310486 Z M20.3170224,15.7480642 L20.2730822,15.8083073 C19.674338,16.6274261 18.9829468,17.4355377 18.2092422,18.2092422 C17.4166668,19.0018176 16.5879855,19.7080154 15.7483524,20.3167272 C17.8311791,21.2793261 19.6477962,21.3952706 20.5215334,20.5215334 C21.3952706,19.6477962 21.2793261,17.8311791 20.3170224,15.7480642 Z M7.68327275,15.7483524 L7.65693052,15.8048369 C6.71864668,17.8641463 6.61267629,19.6557431 7.47846659,20.5215334 C8.35220376,21.3952706 10.1688209,21.2793261 12.2519358,20.3170224 C11.4120145,19.7080154 10.5833332,19.0018176 9.79075777,18.2092422 C8.99818237,17.4166668 8.29198457,16.5879855 7.68327275,15.7483524 Z M13.9997472,8.65477383 L13.9209496,8.70654339 C12.9608701,9.33732755 11.9864258,10.1243578 11.0553918,11.0553918 C10.098819,12.0119646 9.29425855,13.0143619 8.65498806,13.9999225 C9.2940788,14.9854142 10.0987121,15.9879285 11.0553918,16.9446082 C12.0119646,17.901181 13.0143619,18.7057414 13.9999225,19.3450119 C14.9854142,18.7059212 15.9879285,17.9012879 16.9446082,16.9446082 C17.9012879,15.9879285 18.7059212,14.9854142 19.3452262,13.9997472 C18.7057414,13.0143619 17.901181,12.0119646 16.9446082,11.0553918 C15.9879285,10.0987121 14.9854142,9.2940788 13.9997472,8.65477383 Z M12.2519358,7.68297758 C10.1688209,6.7206739 8.35220376,6.60472942 7.47846659,7.47846659 C6.60472942,8.35220376 6.7206739,10.1688209 7.68297758,12.2519358 C8.29198457,11.4120145 8.99818237,10.5833332 9.79075777,9.79075777 C10.4355116,9.14600397 11.1041592,8.55841222 11.7831589,8.03396265 L12.2519358,7.68297758 Z M20.5215334,7.47846659 C19.6477962,6.60472942 17.8311791,6.7206739 15.7480642,7.68297758 C16.5879855,8.29198457 17.4166668,8.99818237 18.2092422,9.79075777 C19.0018176,10.5833332 19.7080154,11.4120145 20.3167272,12.2516476 C21.2793261,10.1688209 21.3952706,8.35220376 20.5215334,7.47846659 Z" id="path-2"></path>
        <filter x="-50.6%" y="-50.6%" width="201.2%" height="201.2%" filterUnits="objectBoundingBox" id="filter-3">
            <feOffset dx="0" dy="0" in="SourceAlpha" result="shadowOffsetOuter1"></feOffset>
            <feGaussianBlur stdDeviation="3" in="shadowOffsetOuter1" result="shadowBlurOuter1"></feGaussianBlur>
            <feColorMatrix values="0 0 0 0 0.504890821   0 0 0 0 0.231417326   0 0 0 0 1  0 0 0 0.3 0" type="matrix" in="shadowBlurOuter1"></feColorMatrix>
        </filter>
    </defs>
    <g id="页面-1" stroke="none" stroke-width="1" fill="none" fill-rule="evenodd">
        <g id="2.2主页_添加_类别" transform="translate(-61.000000, -475.000000)">
            <g id="搜索" transform="translate(0.000000, 92.000000)">
                <g id="切换" transform="translate(24.000000, 68.000000)">
                    <g id="科技" transform="translate(20.000000, 308.000000)">
                        <g transform="translate(18.000000, 8.000000)">
                            <rect id="矩形" fill="#D8D8D8" opacity="0" x="0" y="0" width="28" height="28"></rect>
                            <g id="形状">
                                <use fill="black" fill-opacity="1" filter="url(#filter-3)" xlink:href="#path-2"></use>
                                <use fill="url(#linearGradient-1)" fill-rule="evenodd" xlink:href="#path-2"></use>
                            </g>
                            <circle id="椭圆形" fill="#4923FF" cx="14" cy="14" r="3"></circle>
                        </g>
                    </g>
                </g>
            </g>
        </g>
    </g>
</svg>