<?xml version="1.0" encoding="UTF-8"?>
<svg width="32px" height="29px" viewBox="0 0 32 29" version="1.1" xmlns="http://www.w3.org/2000/svg" xmlns:xlink="http://www.w3.org/1999/xlink">
    <title>出行</title>
    <defs>
        <linearGradient x1="50%" y1="0%" x2="50%" y2="100%" id="linearGradient-1">
            <stop stop-color="#715247" offset="0%"></stop>
            <stop stop-color="#462920" offset="100%"></stop>
        </linearGradient>
        <linearGradient x1="50%" y1="0%" x2="50%" y2="100%" id="linearGradient-2">
            <stop stop-color="#CBA697" offset="0%"></stop>
            <stop stop-color="#835C50" offset="100%"></stop>
        </linearGradient>
        <rect id="path-3" x="4" y="7" width="20" height="16" rx="4"></rect>
        <filter x="-45.0%" y="-56.2%" width="190.0%" height="212.5%" filterUnits="objectBoundingBox" id="filter-4">
            <feOffset dx="0" dy="0" in="SourceAlpha" result="shadowOffsetOuter1"></feOffset>
            <feGaussianBlur stdDeviation="3" in="shadowOffsetOuter1" result="shadowBlurOuter1"></feGaussianBlur>
            <feColorMatrix values="0 0 0 0 0.667372994   0 0 0 0 0.46537974   0 0 0 0 0.348735135  0 0 0 0.3 0" type="matrix" in="shadowBlurOuter1"></feColorMatrix>
        </filter>
    </defs>
    <g id="页面-1" stroke="none" stroke-width="1" fill="none" fill-rule="evenodd">
        <g id="2.2主页_添加_类别" transform="translate(-60.000000, -396.000000)">
            <g id="搜索" transform="translate(0.000000, 92.000000)">
                <g id="切换" transform="translate(24.000000, 68.000000)">
                    <g id="出行" transform="translate(20.000000, 228.000000)">
                        <g transform="translate(18.000000, 8.000000)">
                            <rect id="矩形" fill="#D8D8D8" opacity="0" x="0" y="0" width="28" height="28"></rect>
                            <path d="M10,21 C10.5522847,21 11,21.4477153 11,22 L11,24 C11,24.5522847 10.5522847,25 10,25 C9.44771525,25 9,24.5522847 9,24 L9,22 C9,21.4477153 9.44771525,21 10,21 Z M18,21 C18.5522847,21 19,21.4477153 19,22 L19,24 C19,24.5522847 18.5522847,25 18,25 C17.4477153,25 17,24.5522847 17,24 L17,22 C17,21.4477153 17.4477153,21 18,21 Z M16,3 C17.6568542,3 19,4.34314575 19,6 L19,6 L19,11 L9,11 L9,6 C9,4.34314575 10.3431458,3 12,3 L12,3 Z M16,5 L12,5 C11.4477153,5 11,5.44771525 11,6 L11,6 L11,9 L17,9 L17,6 C17,5.48716416 16.6139598,5.06449284 16.1166211,5.00672773 L16.1166211,5.00672773 L16,5 Z" id="形状结合" fill="url(#linearGradient-1)" fill-rule="nonzero"></path>
                            <g id="矩形">
                                <use fill="black" fill-opacity="1" filter="url(#filter-4)" xlink:href="#path-3"></use>
                                <use fill="url(#linearGradient-2)" fill-rule="evenodd" xlink:href="#path-3"></use>
                            </g>
                            <rect id="矩形" fill="#FFFFFF" x="10" y="10" width="8" height="2" rx="1"></rect>
                        </g>
                    </g>
                </g>
            </g>
        </g>
    </g>
</svg>